<svg xmlns="http://www.w3.org/2000/svg" width="219.212" height="222.686" viewBox="0 0 219.212 222.686">
  <g id="Group_494" data-name="Group 494" transform="translate(0 0)">
    <circle id="Ellipse_4" data-name="Ellipse 4" cx="52" cy="52" r="52" transform="translate(58.106 59.097)" fill="#ea1c2d"/>
    <g id="Group_11" data-name="Group 11" transform="translate(135.966 222.686) rotate(-150)">
      <g id="Frame">
        <rect id="Frame-2" data-name="Frame" width="157" height="166.492" fill="none"/>
        <path id="Vector" d="M.287,0,2.542.037,2.285,15.844l7.733.125-.031,1.908L0,17.716Z" transform="translate(74.442)"/>
        <path id="Vector-2" data-name="Vector" d="M.157,5.8C.938,1.6,4.251-.465,7.224.088,10.515.7,11.935,3.412,11.247,7.1a7.22,7.22,0,0,1-.333,1.222L2.221,6.708c-.353,2.764.989,4.849,3.45,5.306a5.738,5.738,0,0,0,3.4-.433l.514,1.579a7.714,7.714,0,0,1-4.512.545C1.638,13.064-.632,10.038.157,5.8Zm9.219.624c.481-2.586-.419-4.209-2.438-4.585-1.815-.338-3.707.817-4.446,3.3Z" transform="translate(86.297 5.656)"/>
        <path id="Vector-3" data-name="Vector" d="M.441,11.892l2.43-6.841L1.031,4.4l.562-1.585L3.57,3.38,5.055,0,6.8.621,5.569,4.09,8.921,5.28l-.6,1.705L4.964,5.8,2.521,12.672c-.537,1.512-.361,2.561,1.065,3.068a4.374,4.374,0,0,0,1.526.168l-.157,1.723A7.9,7.9,0,0,1,2.5,17.274c-2.632-.935-2.932-2.92-2.057-5.381Z" transform="translate(99.594 5.177)"/>
        <path id="Vector-4" data-name="Vector" d="M0,4.925A3.762,3.762,0,0,0,3.33,2.786l.5-1.744.4,1.727A1.355,1.355,0,0,1,3.094,2.73,1.35,1.35,0,0,1,2.405.877,1.378,1.378,0,0,1,4.352.168c.961.472,1.141,1.538.452,2.941a5.229,5.229,0,0,1-4.7,3.031L0,4.925Z" transform="translate(111.492 7.417)"/>
        <path id="Vector-5" data-name="Vector" d="M0,8.238l1.711-.646a5.918,5.918,0,0,0,2.435,3.393c1.455.925,2.67.609,3.272-.336.725-1.14-.262-2.477-1.2-3.712C5.03,5.382,3.763,3.5,4.952,1.634,6.08-.139,8.374-.608,10.774.92a6.659,6.659,0,0,1,2.654,3.437l-1.662.631a4.94,4.94,0,0,0-1.9-2.594c-1.4-.888-2.514-.553-3.051.292-.671,1.054.28,2.221,1.236,3.486,1.215,1.62,2.583,3.4,1.241,5.511-1.144,1.8-3.524,2.386-6.139.722A7.877,7.877,0,0,1,0,8.237Z" transform="translate(110.327 15.832)"/>
        <path id="Vector-6" data-name="Vector" d="M13.3,0l1.488,1.693-5.571,4.9,5.44,6.187,5.571-4.9,1.488,1.693-13.3,11.7L6.928,19.578l6.256-5.5L7.742,7.891l-6.254,5.5L0,11.7Z" transform="translate(123.541 23.544)"/>
        <path id="Vector-7" data-name="Vector" d="M2,3.481C4.508,2.114,6.944,3.6,10.15,8.222c1.482-.812,2.642-2.081,1.619-3.965A7.234,7.234,0,0,0,8.662,1.492L9.585,0a9.646,9.646,0,0,1,3.969,3.711c1.53,2.814.306,5.022-2.563,6.584L3.917,14.143,3.04,12.531l1.289-.915-.034-.064A6.984,6.984,0,0,1,.556,8.643,3.572,3.572,0,0,1,2,3.481ZM5.669,10.66l3.2-1.741c-2.567-3.612-4.225-4.4-5.7-3.6A2.011,2.011,0,0,0,2.43,8.341a5.4,5.4,0,0,0,3.239,2.319Z" transform="translate(134.533 42.143)"/>
        <path id="Vector-8" data-name="Vector" d="M11.066,0l.7,2.182L5.414,6.816c-1.1.764-2.245,1.577-3.32,2.332l.031.1c1.314-.008,2.716-.007,4.058-.024l7.859.1.663,2.073L.786,10.967,0,8.507,11.065,0Z" transform="translate(140.568 53.608)"/>
        <path id="Vector-9" data-name="Vector" d="M6.1.07c4.243-.529,7.213,2,7.587,5,.415,3.325-1.737,5.5-5.466,5.966a7.053,7.053,0,0,1-1.266.053l-1.1-8.777c-2.741.5-4.32,2.415-4.011,4.9a5.747,5.747,0,0,0,1.447,3.114L1.943,11.3A7.719,7.719,0,0,1,.054,7.161C-.38,3.688,1.814.6,6.1.069ZM8.3,9.049c2.611-.326,3.884-1.678,3.63-3.717C11.7,3.5,10.027,2.046,7.433,2.1L8.3,9.049Z" transform="translate(143.266 68.766)"/>
        <path id="Vector-10" data-name="Vector" d="M4.854.05C7.686.46,8.746,3.109,8.543,8.737c1.672.238,3.363-.083,3.673-2.205a7.235,7.235,0,0,0-.831-4.078l1.634-.641a9.631,9.631,0,0,1,.955,5.351c-.461,3.172-2.764,4.207-6,3.737L0,9.739.264,7.922l1.581.04.011-.072A6.976,6.976,0,0,1,.606,3.319,3.57,3.57,0,0,1,4.854.05ZM3.491,8,7.1,8.526c.11-4.431-.742-6.058-2.4-6.3A2.01,2.01,0,0,0,2.288,4.2,5.405,5.405,0,0,0,3.491,8Z" transform="translate(142.654 87.853)"/>
        <path id="Vector-11" data-name="Vector" d="M12.233,1.141c5.191,2.394,6.945,6.912,5.062,10.995a6.607,6.607,0,0,1-4.027,3.511l-.816-1.737a4.814,4.814,0,0,0,3.025-2.568c1.4-3.041-.157-6.211-4.166-8.059-4.045-1.866-7.47-1.1-8.878,1.947a5.323,5.323,0,0,0,.087,4.564l-1.8.529A6.834,6.834,0,0,1,.673,4.314C2.521.3,7.007-1.27,12.233,1.14Z" transform="translate(136.515 107.417)"/>
        <path id="Vector-12" data-name="Vector" d="M21.691,11.6l-1.338,1.774-4.2-3.173-2.107-1.69a6.247,6.247,0,0,1-.893,4.789C11.486,15.5,9.312,15.419,6.64,13.4L0,8.387,1.338,6.615l6.411,4.84c1.952,1.474,3.233,1.515,4.281.128.808-1.072.823-2.227.554-4.08L4.994,1.772,6.333,0,21.691,11.6Z" transform="translate(127.619 118.553)"/>
        <path id="Vector-13" data-name="Vector" d="M9.971,1.341c1.891,2.146.984,4.851-2.814,9.005,1.121,1.264,2.616,2.115,4.225.7A7.238,7.238,0,0,0,13.392,7.4l1.658.569a9.617,9.617,0,0,1-2.738,4.693c-2.4,2.118-4.828,1.416-6.989-1.037L0,5.579,1.378,4.368,2.555,5.421l.056-.049A6.966,6.966,0,0,1,4.619,1.083a3.569,3.569,0,0,1,5.352.259ZM3.785,6.516l2.41,2.736c2.952-3.3,3.356-5.1,2.247-6.356a2.011,2.011,0,0,0-3.114-.054A5.4,5.4,0,0,0,3.785,6.516Z" transform="translate(118.165 130.033)"/>
        <path id="Vector-14" data-name="Vector" d="M7.3,2.41l3.892,6.127L12.841,7.49l.9,1.419-1.665,1.208,1.747,3.251-1.564.994-1.973-3.107-3,1.906-.969-1.526,3-1.907L5.4,3.569c-.861-1.355-1.8-1.863-3.071-1.052a4.364,4.364,0,0,0-1.073,1.1L0,2.432A7.9,7.9,0,0,1,1.8.716C4.154-.781,5.9.206,7.3,2.41Z" transform="translate(110.142 138.519)"/>
        <path id="Vector-15" data-name="Vector" d="M5.966,2.4a3.1,3.1,0,0,1-1.99,3.979A3.1,3.1,0,0,1,.152,4.1,3.1,3.1,0,0,1,2.142.118,3.1,3.1,0,0,1,5.966,2.4Z" transform="translate(95.973 149.646)"/>
        <path id="Vector-16" data-name="Vector" d="M9.655,17.925,7.4,17.878,7.731,2.07,0,1.909.04,0l9.986.209L9.655,17.924Z" transform="translate(71.321 148.567)"/>
        <path id="Vector-17" data-name="Vector" d="M11.263,8.165c-.872,4.181-4.228,6.168-7.184,5.552C.8,13.033-.558,10.3.208,6.621A7.122,7.122,0,0,1,.568,5.407l8.651,1.8c.412-2.753-.884-4.864-3.333-5.375a5.736,5.736,0,0,0-3.41.359L2,.606A7.717,7.717,0,0,1,6.514.159c3.425.714,5.627,3.786,4.749,8.006Zm-9.2-.823c-.537,2.575.328,4.215,2.338,4.634,1.807.378,3.722-.735,4.513-3.2L2.064,7.343Z" transform="translate(57.884 146.682)"/>
        <path id="Vector-18" data-name="Vector" d="M8.627,5.838,6.044,12.623l1.825.7-.6,1.571-1.963-.61-1.56,3.346-1.734-.661,1.31-3.44L0,12.259l.645-1.691,3.323,1.266,2.6-6.821c.572-1.5.419-2.553-1-3.091a4.368,4.368,0,0,0-1.523-.2L4.241,0a7.912,7.912,0,0,1,2.45.412C9.3,1.406,9.555,3.4,8.628,5.839Z" transform="translate(47.037 143.09)"/>
        <path id="Vector-19" data-name="Vector" d="M5.29,1.215A3.766,3.766,0,0,0,1.916,3.283L1.377,5.016,1.012,3.28a1.36,1.36,0,0,1,1.137.064A1.35,1.35,0,0,1,2.8,5.212,1.378,1.378,0,0,1,.837,5.88C-.114,5.387-.27,4.317.448,2.929A5.229,5.229,0,0,1,5.209,0L5.29,1.215Z" transform="translate(38.882 152.217)"/>
        <path id="Vector-20" data-name="Vector" d="M13.5,5.283l-1.724.608a5.913,5.913,0,0,0-2.36-3.444c-1.432-.958-2.654-.668-3.277.264-.748,1.122.208,2.479,1.116,3.735,1.157,1.581,2.38,3.485,1.151,5.326-1.165,1.747-3.467,2.166-5.834.587A6.662,6.662,0,0,1,0,8.866l1.673-.593a4.939,4.939,0,0,0,1.841,2.632c1.375.918,2.5.608,3.055-.224C7.263,9.644,6.34,8.456,5.41,7.17,4.232,5.525,2.9,3.715,4.293,1.636c1.18-1.771,3.572-2.308,6.148-.587A7.878,7.878,0,0,1,13.5,5.282Z" transform="translate(32.048 136.427)"/>
        <path id="Vector-21" data-name="Vector" d="M8.21,21.166,6.76,19.442l5.677-4.779L7.131,8.358,1.452,13.136,0,11.41,13.558,0,15.01,1.724,8.636,7.09,13.942,13.4l6.375-5.366,1.452,1.726L8.21,21.166Z" transform="translate(10.819 120.503)"/>
        <path id="Vector-22" data-name="Vector" d="M12.167,10.7c-2.542,1.311-4.945-.226-8.052-4.921-1.5.78-2.687,2.024-1.7,3.93a7.227,7.227,0,0,0,3.048,2.833L4.5,14.019a9.65,9.65,0,0,1-3.889-3.8C-.855,7.375.416,5.194,3.32,3.694L10.48,0l.842,1.63-1.309.887.033.066a6.975,6.975,0,0,1,3.674,2.99A3.571,3.571,0,0,1,12.168,10.7ZM8.651,3.444,5.41,5.117c2.489,3.668,4.129,4.5,5.62,3.725a2.011,2.011,0,0,0,.811-3.008,5.4,5.4,0,0,0-3.19-2.39Z" transform="translate(7.654 108.885)"/>
        <path id="Vector-23" data-name="Vector" d="M3.388,11.476l-.65-2.2L9.191,4.785c1.119-.74,2.28-1.526,3.371-2.258l-.03-.1c-1.314-.022-2.716-.053-4.058-.066L.616,2.089,0,0,13.911.737l.73,2.477L3.389,11.476Z" transform="translate(1.513 99.824)"/>
        <path id="Vector-24" data-name="Vector" d="M7.505,11.125C3.254,11.562.343,8.966.035,5.961-.308,2.629,1.891.5,5.626.121A7.152,7.152,0,0,1,6.892.094l.9,8.794c2.749-.442,4.37-2.318,4.114-4.807A5.74,5.74,0,0,0,10.532.94L11.9,0a7.727,7.727,0,0,1,1.8,4.172c.356,3.482-1.9,6.513-6.193,6.953ZM5.5,2.107C2.883,2.375,1.581,3.7,1.791,5.74c.188,1.836,1.832,3.325,4.424,3.331L5.5,2.107Z" transform="translate(0 84.962)"/>
        <path id="Vector-25" data-name="Vector" d="M9.057,11.053C6.237,10.578,5.236,7.908,5.566,2.29,3.9,2.015,2.2,2.3,1.845,4.411a7.236,7.236,0,0,0,.739,4.094l-1.647.6A9.648,9.648,0,0,1,.1,3.741C.636.582,2.96-.4,6.182.141l7.942,1.336-.3,1.81-1.579-.076-.013.073a6.967,6.967,0,0,1,1.147,4.595,3.568,3.568,0,0,1-4.319,3.173ZM10.6,3.136,7,2.531C6.794,6.957,7.61,8.6,9.265,8.882a2.01,2.01,0,0,0,2.451-1.92A5.4,5.4,0,0,0,10.6,3.136Z" transform="translate(0.713 66.024)"/>
        <path id="Vector-26" data-name="Vector" d="M5.637,14.529C.5,12.027-1.164,7.471.8,3.427A6.6,6.6,0,0,1,4.9,0l.78,1.754A4.818,4.818,0,0,0,2.605,4.26c-1.467,3.013.026,6.215,4,8.149,4.007,1.95,7.449,1.259,8.921-1.763a5.319,5.319,0,0,0,.008-4.566l1.813-.492a6.838,6.838,0,0,1-.079,6.01c-1.934,3.971-6.452,5.452-11.629,2.932Z" transform="translate(3.341 41.873)"/>
        <path id="Vector-27" data-name="Vector" d="M0,3.089,1.376,1.346,5.507,4.608,7.576,6.343a6.24,6.24,0,0,1,1-4.767c1.715-2.171,3.887-2.04,6.515.036l6.529,5.156L20.237,8.512l-6.3-4.979c-1.919-1.516-3.2-1.584-4.276-.22-.832,1.054-.87,2.208-.641,4.067l7.461,5.893L15.1,15.017Z" transform="translate(8.917 31.682)"/>
        <path id="Vector-28" data-name="Vector" d="M4.934,12.567c-1.843-2.187-.877-4.873,3.01-8.945-1.093-1.288-2.57-2.172-4.21-.789a7.226,7.226,0,0,0-2.087,3.6L0,5.829A9.621,9.621,0,0,1,2.839,1.194C5.288-.872,7.7-.117,9.8,2.383L15,8.543l-1.4,1.183-1.156-1.08-.056.048a6.983,6.983,0,0,1-2.1,4.247,3.573,3.573,0,0,1-5.349-.375Zm6.3-5.042L8.883,4.737C5.858,7.978,5.417,9.761,6.5,11.045a2.01,2.01,0,0,0,3.112.122,5.4,5.4,0,0,0,1.624-3.641Z" transform="translate(25.15 21.481)"/>
        <path id="Vector-29" data-name="Vector" d="M6.294,12.056,2.54,5.846.87,6.856,0,5.417,1.691,4.246.016.959,1.6,0l1.9,3.15L6.549,1.311l.935,1.548L4.441,4.7l3.773,6.243c.829,1.372,1.752,1.9,3.046,1.118a4.37,4.37,0,0,0,1.1-1.075L13.59,12.2a7.881,7.881,0,0,1-1.833,1.675c-2.39,1.445-4.114.419-5.465-1.816Z" transform="translate(34.692 12.67)"/>
        <path id="Vector-30" data-name="Vector" d="M.131,4.037A3.1,3.1,0,0,1,2.206.1,3.1,3.1,0,0,1,5.979,2.459,3.1,3.1,0,0,1,3.9,6.395,3.1,3.1,0,0,1,.13,4.037Z" transform="translate(56.586 9.927)"/>
      </g>
    </g>
  </g>
</svg>
