<svg id="bxl-linkedin_2" data-name="bxl-linkedin 2" xmlns="http://www.w3.org/2000/svg" width="24" height="24" viewBox="0 0 24 24">
  <rect id="bxl-linkedin_2-2" data-name="bxl-linkedin 2" width="24" height="24" fill="none"/>
  <g id="Group">
    <path id="Vector" d="M4.376,2.188A2.188,2.188,0,1,1,2.188,0,2.188,2.188,0,0,1,4.376,2.188Z" transform="translate(2.795 2.821)" fill="#ea1c2d"/>
    <path id="Vector-2" data-name="Vector" d="M6.142.3H9.76V1.96h.051A3.963,3.963,0,0,1,13.379,0C17.2,0,17.9,2.513,17.9,5.783V12.44H14.134v-5.9c0-1.407-.024-3.218-1.961-3.218-1.964,0-2.262,1.534-2.262,3.118v6H6.142V.3ZM0,.3H3.775V12.439H0Z" transform="translate(3.095 8.555)" fill="#ea1c2d"/>
  </g>
</svg>
